<svg width="20" height="20" viewBox="0 0 20 20" fill="none" xmlns="http://www.w3.org/2000/svg">
<g id="Frame" opacity="0.3">
<path id="Vector" d="M19.3964 8.09693C19.3985 7.70549 19.3342 7.3127 19.2166 6.95505C19.2152 6.94489 19.2132 6.93545 19.2112 6.92731C19.2031 6.88812 19.1923 6.85025 19.1767 6.81375L17.592 2.86895C17.3175 2.0509 16.5292 1.54926 15.6071 1.54724H4.48382C3.5495 1.54724 2.82341 2.04416 2.56042 2.82973L0.856735 6.855C0.848618 6.87866 0.839829 6.91382 0.832407 6.94965C0.708683 7.32959 0.646484 7.71968 0.646484 8.11112C0.647516 9.14895 1.07723 10.1186 1.80866 10.8103L1.81337 16.7242C1.81337 17.6774 2.59017 18.4529 3.54544 18.4529L16.2676 18.4448C17.2215 18.4427 17.9977 17.6653 17.9977 16.7113L17.9964 11.0079C18.8731 10.3088 19.397 9.24184 19.3964 8.09693ZM16.2656 17.0926L3.54544 17.1007C3.33586 17.1007 3.1655 16.9317 3.1655 16.7235L3.16144 11.62C3.52878 11.736 3.93192 11.795 4.36756 11.795C5.47697 11.7916 6.50459 11.3042 7.20499 10.4699C7.90202 11.2974 8.92152 11.7815 10.0289 11.7882C11.1275 11.7794 12.1443 11.2933 12.838 10.4665C13.5384 11.3008 14.5673 11.7862 15.6822 11.7862C16.0231 11.7845 16.3446 11.7473 16.6444 11.6753L16.6455 16.712C16.6455 16.9216 16.4745 17.092 16.2656 17.0926ZM16.8132 10.1779C16.5069 10.3455 16.125 10.4314 15.6808 10.4341C14.8573 10.4341 14.1069 10.0163 13.6688 9.30709C13.6377 9.24014 13.5857 9.12928 13.4883 9.02246C13.3768 8.89739 13.174 8.74934 12.84 8.74934C12.5709 8.74934 12.3268 8.85952 12.1889 9.02856C12.0977 9.13132 12.0476 9.23341 12.0118 9.30776C11.5791 10.0082 10.8348 10.43 10.0282 10.4361C9.21152 10.4314 8.46517 10.0109 8.02978 9.30507C7.99935 9.24287 7.94863 9.13807 7.86955 9.0495C7.55179 8.67024 6.84059 8.68983 6.56341 9.02045C6.46132 9.132 6.40791 9.24422 6.37342 9.32063C5.93669 10.021 5.18558 10.4409 4.36619 10.4436C3.92946 10.4436 3.55559 10.3617 3.25406 10.2008H3.25339C3.25339 10.2008 3.25339 10.2008 3.25272 10.2008C2.4793 9.78914 1.99862 8.98867 1.99794 8.11249C1.99794 7.85356 2.04122 7.5926 2.12774 7.3384C2.13382 7.32015 2.13922 7.29985 2.14398 7.27889L3.82197 3.31176C3.85645 3.21034 3.96056 2.90139 4.48247 2.90139H15.6091C15.8234 2.91424 16.1926 2.95209 16.3237 3.33812L17.8949 7.2505C17.901 7.27889 17.9084 7.30593 17.9152 7.32824C18.0024 7.58311 18.0457 7.84204 18.0457 8.09897C18.047 8.965 17.5745 9.7614 16.8132 10.1779Z" fill="#060605" stroke="#060605" stroke-width="0.351562"/>
</g>
</svg>
